<svg id="Layer_1" data-name="Layer 1" xmlns="http://www.w3.org/2000/svg" viewBox="0 0 697.33 184.75"><defs><style>.cls-1,.cls-4{fill:#fff;}.cls-1,.cls-2{fill-rule:evenodd;}.cls-2,.cls-3{fill:#ffeb3b;}</style></defs><title>Simple Social Network</title><g id="Layer_1-2" data-name="Layer_1"><g id="_934697344" data-name=" 934697344"><path class="cls-1" d="M181.44,345c0-13.32-3.74-23-10.51-30.53l.5.65L159.7,345c0,19.95-14.84,32.76-45.29,32.76-23.76,0-40.9-11.59-44.5-30.81a9.56,9.56,0,0,0-9.43-7.78H57.1a9.26,9.26,0,0,0-7.35,3.38,9.48,9.48,0,0,0-2.09,7.85c5.12,29.23,30.39,48,66.75,48C154.08,398.38,181.44,379.73,181.44,345Zm-10.8-30.81a3,3,0,0,1-.5-.51A3,3,0,0,0,170.64,314.14Zm-.58-.58c-.36-.36-.72-.72-1.15-1.08C169.34,312.84,169.7,313.2,170.06,313.56ZM166.18,310c-.44-.29-.87-.65-1.23-.93C165.31,309.38,165.74,309.74,166.18,310Zm-20-10.44h0c-3-1-6.26-2-9.57-2.95C140,297.58,143.21,298.58,146.23,299.59Z" transform="translate(-47.51 -213.62)"/><path class="cls-2" d="M171.43,315.07c-5.61-6.41-13.46-11.09-23.18-14.69l-1.14-.46-.88-.33a193.2,193.2,0,0,0-27.72-7C82.22,285.91,74,278.28,74,262.94c0-16.63,12.81-28.65,40.17-28.65,18.43,0,30.89,6.69,36.72,17.71a9.54,9.54,0,0,0,11.52,4.61l2.81-.94a9.44,9.44,0,0,0,5.9-5.47,9.31,9.31,0,0,0-.43-8.06c-9.43-18.15-29.45-28.52-56.81-28.52-37.58,0-61.84,19.66-61.84,50s22.46,42.7,61.84,49.61c39.1,6.63,45.8,16.85,45.8,31.68Z" transform="translate(-47.51 -213.62)"/><path class="cls-3" d="M249.19,299.38a10.62,10.62,0,0,0-3.6-8.21c-2.37-2.23-6.62-4.11-12.67-5.62-7.34-1.8-13.1-4.46-17.21-8.06a16.84,16.84,0,0,1-6.12-13.32,17.63,17.63,0,0,1,6.63-14.11c4.39-3.75,10.15-5.69,17.2-5.69,7.64,0,13.61,2.16,18.15,6.55s6.62,9.36,6.48,15.05l-.07.29h-8.93A13.74,13.74,0,0,0,245,256c-2.74-2.59-6.56-3.89-11.6-3.89-4.68,0-8.28,1.08-10.72,3.24A10.85,10.85,0,0,0,219,264a9.61,9.61,0,0,0,4,7.85c2.74,2.09,7.13,4,13.18,5.54,7.27,1.88,12.89,4.61,16.63,8.28a18,18,0,0,1,5.76,13.68,16.89,16.89,0,0,1-6.84,14c-4.61,3.53-10.58,5.33-17.93,5.33a29.94,29.94,0,0,1-18.36-5.9,18,18,0,0,1-7.77-15.7l.07-.29h9c0,4.61,1.66,8.14,4.9,10.51a19.68,19.68,0,0,0,12.16,3.68c4.68,0,8.5-1.08,11.24-3.1A10.13,10.13,0,0,0,249.19,299.38Z" transform="translate(-47.51 -213.62)"/><path class="cls-3" d="M280.58,317.59h-9.36V264h9.36Zm0-67.32h-9.36V240.12h9.36Z" transform="translate(-47.51 -213.62)"/><path class="cls-3" d="M303.41,264l.72,7.06a17.29,17.29,0,0,1,6.41-5.91,18.08,18.08,0,0,1,9-2.16,15.49,15.49,0,0,1,8.85,2.52,14.9,14.9,0,0,1,5.55,7.42,19.64,19.64,0,0,1,6.4-7.27,17,17,0,0,1,9.36-2.67,15.29,15.29,0,0,1,12.46,5.62c3,3.82,4.54,9.43,4.54,17v32h-9.36V285.41c0-5.26-.87-9-2.67-11.23s-4.32-3.32-7.77-3.32a9.68,9.68,0,0,0-7.78,3.46,15.54,15.54,0,0,0-3.53,8.78v34.49h-9.43V285.41c0-5-.86-8.71-2.66-11a9.36,9.36,0,0,0-7.78-3.53,12.52,12.52,0,0,0-7.06,1.88,12.31,12.31,0,0,0-4.24,5.11v39.74h-9.36V264Z" transform="translate(-47.51 -213.62)"/><path class="cls-3" d="M424.3,292.82c0,7.71-1.8,13.9-5.4,18.65s-8.43,7.13-14.69,7.13a20.06,20.06,0,0,1-8.35-1.66,16.3,16.3,0,0,1-6.12-5v26.2H380.3V264h7.2l1.52,7a16.84,16.84,0,0,1,6.26-5.91,18.17,18.17,0,0,1,8.78-2.09A17,17,0,0,1,419,270.86c3.53,5.26,5.33,12.24,5.33,20.88Zm-9.44-1.15q0-9.07-3.45-14.9a11.05,11.05,0,0,0-10.15-5.91,11.86,11.86,0,0,0-6.92,1.95,12.91,12.91,0,0,0-4.6,5.18v25.85a12.91,12.91,0,0,0,4.6,5.18,12.61,12.61,0,0,0,7,1.88,11.51,11.51,0,0,0,10.15-5.12c2.23-3.38,3.38-7.7,3.38-13Z" transform="translate(-47.51 -213.62)"/><polygon class="cls-3" points="398.46 103.97 389.03 103.97 389.03 26.64 398.46 26.64 398.46 103.97"/><path class="cls-3" d="M481.75,318.6c-7.13,0-12.89-2.52-17.13-7.49s-6.34-11.37-6.34-19.29v-2.24c0-7.63,2.16-14,6.55-19s9.58-7.64,15.55-7.64c6.92,0,12.17,2.24,15.77,6.56s5.33,10.15,5.33,17.42V293H468l-.14.22c.14,5.11,1.36,9.36,3.74,12.67a11.93,11.93,0,0,0,10.15,5,23.35,23.35,0,0,0,8.43-1.44,19.09,19.09,0,0,0,6.19-3.89L500,311.9a20.61,20.61,0,0,1-7.27,4.76A28.08,28.08,0,0,1,481.75,318.6Zm-1.37-48a10.28,10.28,0,0,0-8.06,4.1,19.74,19.74,0,0,0-4.1,10.3l.07.21h23.76V284a14.71,14.71,0,0,0-2.95-9.5C487.15,271.94,484.2,270.65,480.38,270.65Z" transform="translate(-47.51 -213.62)"/><path class="cls-4" d="M241.49,383.33a8.3,8.3,0,0,0-2.88-6.48c-2-1.73-5.4-3.17-10.37-4.39q-9-2.16-14-6.27a13.23,13.23,0,0,1-5-10.51,13.59,13.59,0,0,1,5.47-11c3.6-3,8.28-4.46,14-4.46,6.19,0,11.09,1.66,14.83,5.11s5.4,7.35,5.26,11.81l-.07.22h-7.27a10.75,10.75,0,0,0-3.32-8.07c-2.23-2-5.32-3-9.43-3-3.81,0-6.77.86-8.78,2.59a8.41,8.41,0,0,0-3,6.7,7.45,7.45,0,0,0,3.32,6.19c2.16,1.65,5.76,3.09,10.72,4.32q9,2.16,13.61,6.48a14.11,14.11,0,0,1,4.68,10.73,13.14,13.14,0,0,1-5.61,11c-3.75,2.74-8.64,4.11-14.62,4.11a25.38,25.38,0,0,1-15.05-4.61,13.83,13.83,0,0,1-6.26-12.31l.07-.22H215a9.56,9.56,0,0,0,4,8.28,16.9,16.9,0,0,0,9.94,2.81c3.82,0,6.91-.79,9.14-2.38A7.62,7.62,0,0,0,241.49,383.33Z" transform="translate(-47.51 -213.62)"/><path class="cls-4" d="M257.11,376.2c0-6.26,1.66-11.38,5-15.41s7.92-6.05,13.75-6.05,10.44,2,13.83,6.05,5,9.15,5,15.41v.86c0,6.27-1.66,11.38-5,15.34s-8,6-13.75,6-10.44-1.95-13.83-6-5-9.14-5-15.34Zm7.63.79a19.87,19.87,0,0,0,2.81,11,9.38,9.38,0,0,0,8.43,4.32,9.23,9.23,0,0,0,8.28-4.32c1.94-2.88,2.88-6.55,2.88-11v-.86a19.43,19.43,0,0,0-2.88-10.95,10.15,10.15,0,0,0-16.71,0,20,20,0,0,0-2.81,10.95Z" transform="translate(-47.51 -213.62)"/><path class="cls-4" d="M321.26,392.33A10.6,10.6,0,0,0,328,390a7.26,7.26,0,0,0,3-5.76h6.84l.07.22c.15,3.6-1.51,6.84-4.82,9.65a17.45,17.45,0,0,1-11.74,4.25c-6.12,0-10.8-1.95-14-6s-4.89-9-4.89-15v-1.58c0-6,1.65-11,4.89-15s7.92-6.05,14-6.05a17,17,0,0,1,12.1,4.4,13.74,13.74,0,0,1,4.54,10.72l-.08.22h-6.91a8.91,8.91,0,0,0-2.73-6.55,9.53,9.53,0,0,0-6.92-2.74q-6,0-8.64,4.32A20.41,20.41,0,0,0,310,375.77v1.58a20.49,20.49,0,0,0,2.59,10.73C314.35,390.89,317.23,392.33,321.26,392.33Z" transform="translate(-47.51 -213.62)"/><path class="cls-4" d="M354.74,397.58H347v-42h7.7Zm0-52.77H347v-8h7.7Z" transform="translate(-47.51 -213.62)"/><path class="cls-4" d="M392.4,397.58c-.29-1.22-.5-2.37-.65-3.31a20.9,20.9,0,0,1-.21-2.95,18.14,18.14,0,0,1-5.62,5,14.16,14.16,0,0,1-7.42,2c-4.39,0-7.7-1.08-10-3.32a12.52,12.52,0,0,1-3.46-9.28,10.87,10.87,0,0,1,4.9-9.44c3.24-2.3,7.7-3.45,13.24-3.45h8.36v-4.11a7.72,7.72,0,0,0-2.31-5.83,8.66,8.66,0,0,0-6.33-2.16,9.64,9.64,0,0,0-6,1.87,5.79,5.79,0,0,0-2.31,4.54h-7.27l-.07-.29c-.22-3,1.3-5.83,4.32-8.35s7-3.82,11.81-3.82,8.57,1.23,11.52,3.68,4.32,5.9,4.32,10.44v20.3a42.53,42.53,0,0,0,.21,4.32,34.85,34.85,0,0,0,.87,4.1ZM379.66,392a13.56,13.56,0,0,0,7.48-2.16,10.4,10.4,0,0,0,4.4-4.9v-6.84H382.9a11.15,11.15,0,0,0-7.42,2.38,7,7,0,0,0-2.74,5.47,5.7,5.7,0,0,0,1.73,4.39A7.34,7.34,0,0,0,379.66,392Z" transform="translate(-47.51 -213.62)"/><polygon class="cls-4" points="371.1 183.96 363.4 183.96 363.4 123.26 371.1 123.26 371.1 183.96"/><polygon class="cls-4" points="446.92 183.96 439.28 183.96 412 140.18 411.78 140.26 411.78 183.96 404.08 183.96 404.08 127.37 411.78 127.37 439 171.07 439.28 171 439.28 127.37 446.92 127.37 446.92 183.96"/><path class="cls-4" d="M524.45,398.38c-5.83,0-10.51-1.95-14-5.84s-5.18-8.92-5.18-15.19V375.7c0-6.05,1.72-11,5.32-15a16.5,16.5,0,0,1,12.68-6c5.68,0,9.93,1.73,12.88,5.12s4.32,8,4.32,13.68v4.82H513.22l-.15.14a16.59,16.59,0,0,0,3.1,9.94,9.8,9.8,0,0,0,8.28,3.89,19.8,19.8,0,0,0,6.84-1.08,14.46,14.46,0,0,0,5-3.1l3,5a17.36,17.36,0,0,1-6,3.75A25.08,25.08,0,0,1,524.45,398.38Zm-1.15-37.59a8.45,8.45,0,0,0-6.63,3.24,15.41,15.41,0,0,0-3.31,8.07l.07.21h19.44v-1a11.25,11.25,0,0,0-2.45-7.48C528.84,361.8,526.46,360.79,523.3,360.79Z" transform="translate(-47.51 -213.62)"/><path class="cls-4" d="M559.22,345.38v10.16h8v5.68h-8v25.42a5.7,5.7,0,0,0,1.23,4.1,4.36,4.36,0,0,0,3.24,1.23,9.8,9.8,0,0,0,1.44-.15c.57-.14,1-.28,1.44-.43l1,5.4a6.82,6.82,0,0,1-2.52,1.15,12.6,12.6,0,0,1-3.32.44,9.88,9.88,0,0,1-7.41-2.81c-1.87-1.87-2.74-4.83-2.74-8.79V361.22H544.9v-5.68h6.69V345.38Z" transform="translate(-47.51 -213.62)"/><polygon class="cls-4" points="539.87 168.7 540.8 173.74 541.02 173.74 542.1 168.7 550.52 141.91 556.64 141.91 565.14 168.7 566.29 174.31 566.58 174.31 567.66 168.7 574.28 141.91 581.92 141.91 569.68 183.96 563.56 183.96 555.42 158.4 553.62 151.2 553.4 151.27 551.75 158.4 543.76 183.96 537.56 183.96 525.32 141.91 532.96 141.91 539.87 168.7"/><path class="cls-4" d="M635.11,376.2c0-6.26,1.73-11.38,5.11-15.41s7.92-6.05,13.68-6.05,10.44,2,13.83,6.05,5.11,9.15,5.11,15.41v.86c0,6.27-1.73,11.38-5,15.34s-8,6-13.82,6-10.37-1.95-13.76-6-5.11-9.14-5.11-15.34Zm7.71.79a19.87,19.87,0,0,0,2.8,11,10.24,10.24,0,0,0,16.71,0,19.87,19.87,0,0,0,2.81-11v-.86a20,20,0,0,0-2.81-10.95,9.61,9.61,0,0,0-8.43-4.39,9.37,9.37,0,0,0-8.28,4.39,20,20,0,0,0-2.8,10.95Z" transform="translate(-47.51 -213.62)"/><path class="cls-4" d="M702.14,362.3l-4-.21a8.89,8.89,0,0,0-5.11,1.44,9.52,9.52,0,0,0-3.24,4v30H682.2v-42H689l.72,6.19a14.11,14.11,0,0,1,4.46-5.11,10.2,10.2,0,0,1,6-1.88,12.21,12.21,0,0,1,1.59.15c.5.07.93.21,1.29.29Z" transform="translate(-47.51 -213.62)"/><polygon class="cls-4" points="674.65 164.52 669.68 164.52 669.68 183.96 662.05 183.96 662.05 123.26 669.68 123.26 669.68 158.47 674.58 158.47 686.1 141.91 695.32 141.91 680.92 161.06 697.33 183.96 688.33 183.96 674.65 164.52"/><circle class="cls-3" cx="46.52" cy="49.82" r="5.83"/><circle class="cls-3" cx="67.12" cy="50.26" r="5.83"/><circle class="cls-3" cx="86.7" cy="46.3" r="5.83"/><circle class="cls-3" cx="135.52" cy="26.57" r="5.83"/><circle class="cls-3" cx="154.16" cy="13.9" r="5.83"/><circle class="cls-3" cx="174.76" cy="9.36" r="5.83"/><circle class="cls-4" cx="195.13" cy="10.15" r="5.83"/><circle class="cls-4" cx="213.78" cy="19.22" r="5.83"/><circle class="cls-4" cx="241.5" cy="45.79" r="4.25"/><circle class="cls-3" cx="262.02" cy="98.78" r="3.17"/><circle class="cls-4" cx="266.92" cy="108.36" r="2.66"/><circle class="cls-4" cx="273.76" cy="114.55" r="2.66"/><circle class="cls-4" cx="280.88" cy="119.95" r="2.66"/><circle class="cls-3" cx="290.82" cy="123.12" r="2.66"/></g></g></svg>